<svg xmlns="http://www.w3.org/2000/svg" width="1em" height="1em" viewBox="0 0 24 24" role="img" aria-label="" aria-hidden="true" class="w_16 h_16 svg"><path d="M21 6.815c-.653.283-1.203.292-1.786.013.752-.437.787-.745 1.059-1.57a7.44 7.44 0 0 1-2.315.858A3.694 3.694 0 0 0 15.298 5c-2.012 0-3.644 1.584-3.644 3.534 0 .277.032.547.094.806a10.453 10.453 0 0 1-7.511-3.693 3.438 3.438 0 0 0-.494 1.777c0 1.227.644 2.308 1.621 2.942a3.717 3.717 0 0 1-1.65-.442v.044c0 1.713 1.256 3.141 2.924 3.466a3.78 3.78 0 0 1-1.647.062c.465 1.403 1.81 2.425 3.405 2.454A7.494 7.494 0 0 1 3 17.413 10.553 10.553 0 0 0 8.587 19c6.703 0 10.368-5.385 10.368-10.056 0-.154-.002-.306-.01-.457.712-.498 1.567-.962 2.055-1.672z"/></svg>