<svg xmlns="http://www.w3.org/2000/svg" width="1em" height="1em" viewBox="0 0 24 24" role="img" aria-label="" aria-hidden="true" class="w_16 h_16 svg"><path d="M12 3c-4.963 0-9 4.037-9 9s4.037 9 9 9 9-4.037 9-9-4.037-9-9-9zm1.043 11.671c-.744 0-1.444-.4-1.683-.857 0 0-.401 1.587-.484 1.894-.299 1.082-1.177 2.167-1.245 2.255-.047.063-.152.044-.164-.04-.019-.137-.242-1.503.02-2.618l.888-3.756s-.22-.441-.22-1.091c0-1.021.592-1.784 1.328-1.784.627 0 .93.47.93 1.034 0 .63-.401 1.573-.609 2.446-.173.732.368 1.329 1.088 1.329 1.306 0 2.186-1.679 2.186-3.666 0-1.51-1.017-2.641-2.868-2.641-2.09 0-3.394 1.56-3.394 3.3 0 .373.07.678.187.934l-1.136.604c-.266-.477-.395-1.075-.395-1.709C7.472 8.348 9.124 6 12.398 6c2.633 0 4.364 1.904 4.364 3.95 0 2.702-1.503 4.722-3.719 4.722z"/></svg>